<svg width="640" height="59" viewBox="0 0 640 59" fill="none" xmlns="http://www.w3.org/2000/svg">
<path d="M634.669 18.1789L639.007 16.2738C639.113 16.1679 639.113 16.0621 639.007 16.0621L634.669 14.1571L632.658 9.71202C632.658 9.6062 632.552 9.6062 632.552 9.71202L630.542 14.0513L626.202 16.0621C626.096 16.0621 626.096 16.1679 626.202 16.2738L630.542 18.1789L632.552 22.5181H632.658L634.669 18.1789Z" fill="#6ADBC6"/>
<path opacity="0.5" d="M365.529 7.70612L369.623 5.9V5.65918L365.529 3.97347L363.723 0H363.482L361.676 3.97347L357.703 5.65918C357.582 5.77959 357.582 5.9 357.703 5.9L361.676 7.70612L363.482 11.8H363.723L365.529 7.70612Z" fill="#9691FF"/>
<path d="M609.115 52.8136L615.226 50.134C615.264 50.0906 615.286 50.0345 615.286 49.9764C615.286 49.9182 615.264 49.8621 615.226 49.8188L609.115 47.1392L606.373 40.9921C606.358 40.9754 606.339 40.9619 606.32 40.9527C606.3 40.9436 606.277 40.9388 606.255 40.9388C606.234 40.9388 606.211 40.9436 606.19 40.9527C606.171 40.9619 606.153 40.9754 606.137 40.9921L603.396 47.0605L597.285 49.8188C597.246 49.8621 597.225 49.9182 597.225 49.9764C597.225 50.0345 597.246 50.0906 597.285 50.134L603.396 52.8136L606.137 58.8818C606.242 59.0394 606.32 59.0394 606.373 58.8818L609.115 52.8136Z" fill="#628BF7"/>
<path d="M18.394 41.1194L27.6655 37.0255C27.7293 37.0255 27.7906 37.0001 27.8357 36.955C27.8809 36.9098 27.9063 36.8485 27.9063 36.7847C27.9063 36.7209 27.8809 36.6596 27.8357 36.6144C27.7906 36.5693 27.7293 36.5439 27.6655 36.5439L18.394 32.45C18.3621 32.45 18.3314 32.4374 18.3089 32.4147C18.2863 32.3922 18.2736 32.3615 18.2736 32.3296L14.0593 23.0582C14.0593 22.8174 13.8185 22.8174 13.6981 23.0582L9.60423 32.3296H9.48382L0.0919835 36.5439C0.0327481 36.6101 0 36.6958 0 36.7847C0 36.8736 0.0327481 36.9593 0.0919835 37.0255L9.48382 41.1194H9.60423L13.6981 50.5112C13.8185 50.752 14.0593 50.752 14.0593 50.5112L18.2736 41.2398C18.2736 41.2079 18.2863 41.1772 18.3089 41.1547C18.3314 41.132 18.3621 41.1194 18.394 41.1194Z" fill="#FF7ABC"/>
</svg>
